<mxfile host="app.diagrams.net" modified="2024-01-24T01:10:36.201Z" agent="Mozilla/5.0 (X11; CrOS x86_64 14541.0.0) AppleWebKit/537.36 (KHTML, like Gecko) Chrome/120.0.0.0 Safari/537.36" version="23.0.0" etag="V52XQV1lQTnTJM2JnfBz" type="github">
  <diagram name="Page-1" id="J4uFjlaQboDc-oYEX2o8">
    <mxGraphModel>
      <root>
        <mxCell id="0" />
        <mxCell id="1" parent="0" />
      </root>
    </mxGraphModel>
  </diagram>
</mxfile>
